<svg xmlns="http://www.w3.org/2000/svg" viewBox="0 0 1440 320"><path fill="#ffd700" fill-opacity="1" d="M0,160L24,149.3C48,139,96,117,144,122.7C192,128,240,160,288,149.3C336,139,384,85,432,90.7C480,96,528,160,576,165.3C624,171,672,117,720,122.7C768,128,816,192,864,192C912,192,960,128,1008,117.3C1056,107,1104,149,1152,186.7C1200,224,1248,256,1296,266.7C1344,277,1392,267,1416,261.3L1440,256L1440,320L1416,320C1392,320,1344,320,1296,320C1248,320,1200,320,1152,320C1104,320,1056,320,1008,320C960,320,912,320,864,320C816,320,768,320,720,320C672,320,624,320,576,320C528,320,480,320,432,320C384,320,336,320,288,320C240,320,192,320,144,320C96,320,48,320,24,320L0,320Z"></path></svg>